<?xml version="1.0" standalone="no"?>
<!DOCTYPE svg PUBLIC "-//W3C//DTD SVG 20010904//EN"
 "http://www.w3.org/TR/2001/REC-SVG-20010904/DTD/svg10.dtd">
<svg version="1.0" xmlns="http://www.w3.org/2000/svg"
 width="263.000000pt" height="263.000000pt" viewBox="0 0 263.000000 263.000000"
 preserveAspectRatio="xMidYMid meet">
<metadata>
Created by potrace 1.14, written by Peter Selinger 2001-2017
</metadata>
<g transform="translate(0.000000,263.000000) scale(0.100000,-0.100000)"
fill="#000000" stroke="none">
<path d="M1834 1586 c-40 -33 -40 -99 0 -132 63 -55 156 -16 156 65 0 78 -96
119 -156 67z"/>
<path d="M2209 1586 c-4 -4 -82 -15 -116 -15 -42 -1 -52 -30 -44 -126 1 -9 11
-15 26 -15 l26 0 -3 -127 c-3 -115 -5 -128 -21 -128 -10 0 -22 -6 -26 -14 -6
-9 -11 -10 -15 -2 -4 6 -16 11 -27 11 -18 0 -19 8 -19 114 0 67 -4 117 -10
121 -13 8 -192 7 -213 -1 -11 -4 -14 -16 -11 -47 8 -76 13 -87 39 -87 23 0 25
-3 25 -49 0 -47 -2 -50 -27 -53 -25 -3 -28 -8 -31 -42 -2 -22 -1 -50 3 -63 l5
-23 261 1 c143 1 262 0 264 -3 5 -5 225 0 240 6 8 3 11 23 10 54 -3 58 -9 72
-34 72 -20 0 -87 48 -96 69 -8 21 24 51 56 51 15 0 31 5 35 12 10 16 8 108 -3
119 -4 4 -60 9 -123 11 l-115 3 -5 64 c-4 50 -9 67 -26 77 -11 8 -22 12 -25
10z"/>
<path d="M124 1561 c-33 -6 -40 -18 -38 -70 1 -56 3 -61 31 -65 16 -3 18 -15
21 -128 3 -125 2 -125 -20 -124 -20 1 -23 -4 -26 -43 -2 -25 -1 -55 3 -68 l5
-23 223 1 c122 1 230 5 240 10 10 6 17 21 17 40 l0 30 30 -35 c38 -43 88 -60
149 -52 25 3 154 7 286 9 l240 2 3 44 c4 48 -4 92 -16 90 -39 -6 -52 2 -52 34
0 18 6 42 14 52 13 18 15 18 40 2 33 -22 55 -12 96 45 l30 41 0 -31 c0 -29 8
-37 33 -33 11 2 15 -16 20 -100 8 -131 47 -175 146 -166 62 5 141 47 141 74 0
8 -11 39 -25 69 -25 54 -26 55 -60 48 l-35 -6 0 39 0 39 40 -1 c23 -1 45 4 51
11 5 7 9 39 7 71 l-3 58 -42 3 -43 3 0 49 c0 50 -11 62 -47 56 -10 -2 -40 -7
-66 -10 -27 -4 -50 -13 -52 -19 -4 -11 -12 -50 -14 -69 -1 -4 -11 -8 -23 -10
-14 -2 -24 -12 -28 -27 -5 -22 -6 -22 -19 -7 -29 35 -72 49 -133 43 -37 -3
-58 -1 -58 5 0 14 -131 4 -162 -13 -12 -6 -23 -8 -25 -3 -2 5 -22 8 -45 7 -24
-2 -100 -4 -169 -5 -120 -3 -127 -4 -163 -31 -48 -37 -64 -77 -62 -158 1 -61
0 -65 -20 -61 -21 4 -25 8 -68 87 -16 28 -33 55 -38 62 -5 7 -6 18 -2 24 14
23 77 74 98 79 18 5 21 15 24 64 2 41 -1 62 -10 67 -22 14 -222 11 -237 -3
-10 -9 -12 -9 -7 -1 5 9 -15 11 -77 10 -46 -1 -92 -4 -103 -6z m914 -257 c20
-6 22 -13 22 -64 0 -64 -8 -71 -68 -62 -31 4 -32 5 -32 56 0 43 4 53 23 62 29
15 28 15 55 8z m-257 -48 c8 -17 8 -29 0 -45 -14 -25 -24 -26 -45 -5 -19 18
-20 28 -6 55 14 26 38 24 51 -5z m-456 -35 c20 -39 11 -65 -16 -48 -18 11 -26
56 -12 70 10 10 11 9 28 -22z"/>
</g>
</svg>
